<mxfile host="app.diagrams.net" agent="Mozilla/5.0 (Windows NT 10.0; Win64; x64) AppleWebKit/537.36 (KHTML, like Gecko) Chrome/129.0.0.0 Safari/537.36" version="24.7.16">
  <diagram name="Page-1" id="HjitIE8cfVeCvQmA_SaP">
    <mxGraphModel grid="1" page="1" gridSize="10" guides="1" tooltips="1" connect="1" arrows="1" fold="1" pageScale="1" pageWidth="850" pageHeight="1100" math="0" shadow="0">
      <root>
        <mxCell id="0" />
        <mxCell id="1" parent="0" />
        <mxCell id="lBE25YySIAU9G8c4cDmL-1" value="" style="rounded=0;whiteSpace=wrap;html=1;" vertex="1" parent="1">
          <mxGeometry x="250" y="115" width="370" height="440" as="geometry" />
        </mxCell>
        <mxCell id="lBE25YySIAU9G8c4cDmL-2" value="Guest" style="shape=umlActor;verticalLabelPosition=bottom;verticalAlign=top;html=1;" vertex="1" parent="1">
          <mxGeometry x="80" y="270" width="70" height="130" as="geometry" />
        </mxCell>
        <mxCell id="lBE25YySIAU9G8c4cDmL-3" value="Hotel System&lt;div&gt;&lt;br&gt;&lt;/div&gt;" style="shape=umlActor;verticalLabelPosition=bottom;verticalAlign=top;html=1;" vertex="1" parent="1">
          <mxGeometry x="700" y="270" width="70" height="130" as="geometry" />
        </mxCell>
        <mxCell id="lBE25YySIAU9G8c4cDmL-4" value="Create account" style="ellipse;whiteSpace=wrap;html=1;" vertex="1" parent="1">
          <mxGeometry x="320" y="180" width="230" height="70" as="geometry" />
        </mxCell>
        <mxCell id="lBE25YySIAU9G8c4cDmL-5" value="Update Profile" style="ellipse;whiteSpace=wrap;html=1;" vertex="1" parent="1">
          <mxGeometry x="320" y="300" width="230" height="70" as="geometry" />
        </mxCell>
        <mxCell id="lBE25YySIAU9G8c4cDmL-6" value="View booking history" style="ellipse;whiteSpace=wrap;html=1;" vertex="1" parent="1">
          <mxGeometry x="320" y="420" width="230" height="70" as="geometry" />
        </mxCell>
        <mxCell id="lBE25YySIAU9G8c4cDmL-8" value="" style="endArrow=none;html=1;rounded=0;entryX=0;entryY=0.5;entryDx=0;entryDy=0;" edge="1" parent="1" target="lBE25YySIAU9G8c4cDmL-4">
          <mxGeometry width="50" height="50" relative="1" as="geometry">
            <mxPoint x="170" y="340" as="sourcePoint" />
            <mxPoint x="450" y="420" as="targetPoint" />
          </mxGeometry>
        </mxCell>
        <mxCell id="lBE25YySIAU9G8c4cDmL-9" value="" style="endArrow=none;html=1;rounded=0;entryX=0;entryY=0.5;entryDx=0;entryDy=0;" edge="1" parent="1" target="lBE25YySIAU9G8c4cDmL-5">
          <mxGeometry width="50" height="50" relative="1" as="geometry">
            <mxPoint x="170" y="335" as="sourcePoint" />
            <mxPoint x="330" y="225" as="targetPoint" />
          </mxGeometry>
        </mxCell>
        <mxCell id="lBE25YySIAU9G8c4cDmL-10" value="" style="endArrow=none;html=1;rounded=0;entryX=0;entryY=0.5;entryDx=0;entryDy=0;" edge="1" parent="1" target="lBE25YySIAU9G8c4cDmL-6">
          <mxGeometry width="50" height="50" relative="1" as="geometry">
            <mxPoint x="170" y="340" as="sourcePoint" />
            <mxPoint x="330" y="345" as="targetPoint" />
          </mxGeometry>
        </mxCell>
        <mxCell id="lBE25YySIAU9G8c4cDmL-11" value="" style="endArrow=none;html=1;rounded=0;exitX=1;exitY=0.5;exitDx=0;exitDy=0;" edge="1" parent="1" source="lBE25YySIAU9G8c4cDmL-5">
          <mxGeometry width="50" height="50" relative="1" as="geometry">
            <mxPoint x="400" y="270" as="sourcePoint" />
            <mxPoint x="680" y="335" as="targetPoint" />
          </mxGeometry>
        </mxCell>
        <mxCell id="lBE25YySIAU9G8c4cDmL-12" value="" style="endArrow=none;html=1;rounded=0;exitX=1;exitY=0.5;exitDx=0;exitDy=0;" edge="1" parent="1" source="lBE25YySIAU9G8c4cDmL-6">
          <mxGeometry width="50" height="50" relative="1" as="geometry">
            <mxPoint x="560" y="345" as="sourcePoint" />
            <mxPoint x="680" y="340" as="targetPoint" />
          </mxGeometry>
        </mxCell>
        <mxCell id="lBE25YySIAU9G8c4cDmL-13" value="" style="endArrow=none;html=1;rounded=0;exitX=1;exitY=0.5;exitDx=0;exitDy=0;" edge="1" parent="1" source="lBE25YySIAU9G8c4cDmL-4">
          <mxGeometry width="50" height="50" relative="1" as="geometry">
            <mxPoint x="560" y="345" as="sourcePoint" />
            <mxPoint x="680" y="330" as="targetPoint" />
          </mxGeometry>
        </mxCell>
      </root>
    </mxGraphModel>
  </diagram>
</mxfile>
